<?xml version="1.0" encoding="UTF-8"?>
<svg version="1.1" xmlns="http://www.w3.org/2000/svg" width="512" height="512">
<path d="M0 0 C0.82081055 0.19867676 1.64162109 0.39735352 2.48730469 0.60205078 C39.25146436 9.71459314 70.23615388 31.28338466 94.39453125 60.2734375 C98.10551651 64.26432676 101.56393186 65.68064864 106.8125 67.125 C107.99457031 67.45757812 109.17664063 67.79015625 110.39453125 68.1328125 C135.72932144 74.22633733 159.2737822 65.75434329 182.11743164 55.47875977 C202.62163543 46.44107321 227.75921931 44.03763458 249 52 C257.52827269 55.47802307 265.01164648 59.99246803 272 66 C272.65097656 66.49628906 273.30195313 66.99257812 273.97265625 67.50390625 C289.39023761 79.73375707 298.6689802 100.29101188 301.08642578 119.38452148 C303.8090914 144.65095055 298.95166032 173.24815015 282.73974609 193.58056641 C279.65457068 197.2179782 276.36924018 200.6258484 273 204 C272.34257812 204.66902344 271.68515625 205.33804688 271.0078125 206.02734375 C260.58221261 215.89363034 244.55460869 224 230 224 C230.00276538 224.58622666 230.00553076 225.17245333 230.00837994 225.77644444 C230.07470689 240.05750396 230.12431319 254.33854971 230.15543652 268.61972904 C230.17088858 275.52608341 230.19194615 282.43233479 230.22631836 289.33862305 C230.25947604 296.0040726 230.27685566 302.66939309 230.28463173 309.33492851 C230.29017305 311.87742229 230.30099384 314.41991025 230.31719017 316.96235847 C230.33897959 320.5245947 230.34196621 324.08638946 230.34057617 327.64868164 C230.35675491 329.22393364 230.35675491 329.22393364 230.3732605 330.83100891 C230.33660629 339.51684815 228.31236037 345.53255652 222.2890625 351.96484375 C187.51642933 382.88044423 118.69163051 381.22449362 74.6875 381.25 C73.47712067 381.25100708 72.26674133 381.25201416 71.01968384 381.25305176 C-43.6137777 381.18882763 -43.6137777 381.18882763 -77 350 C-82.68955517 342.99747055 -83.29761491 335.96888457 -83.31884766 327.30102539 C-83.32889328 326.35390686 -83.3389389 325.40678833 -83.34928894 324.43096924 C-83.38002576 321.31987073 -83.39712968 318.20885791 -83.4140625 315.09765625 C-83.43278178 312.93288948 -83.45235576 310.76812995 -83.4727478 308.6033783 C-83.5239946 302.92024001 -83.56366026 297.23707809 -83.60089111 291.55383301 C-83.64097747 285.74872018 -83.69204868 279.94370504 -83.7421875 274.13867188 C-83.83885857 262.75918329 -83.92329159 251.37963944 -84 240 C-85.80223022 239.41883423 -85.80223022 239.41883423 -87.64086914 238.82592773 C-89.25155562 238.29959412 -90.86214622 237.77296704 -92.47265625 237.24609375 C-93.65438416 236.86632385 -93.65438416 236.86632385 -94.85998535 236.47888184 C-123.74436695 226.98416979 -148.53731014 207.14260145 -162.75 180.1875 C-177.38862762 149.61960009 -177.43517862 111.92201412 -167 80 C-156.21808138 49.82916411 -133.55105752 25.52518282 -104.6875 11.75 C-73.00376534 -2.77591795 -34.15005898 -8.50313549 0 0 Z M-84 22 C-84.6388916 22.21495117 -85.2777832 22.42990234 -85.93603516 22.65136719 C-112.92077963 31.94974167 -134.48595003 51.18294753 -147.05859375 76.69140625 C-159.24712596 102.83501024 -160.77790225 136.81975981 -151 164 C-140.63516513 189.54730537 -121.35203338 206.08100693 -96.765625 217.4921875 C-92.28329752 219.28697838 -87.62467791 220.61259663 -83 222 C-83 208.47 -83 194.94 -83 181 C-89.93 178.525 -89.93 178.525 -97 176 C-104.74180579 171.19193114 -110.8994225 166.29588781 -115 158 C-115.63073456 154.08944572 -115.48047363 152.17115447 -114 148.5625 C-111.3914638 146.52458109 -109.1689236 146.43562626 -105.9140625 146.625 C-102.19999236 147.35265456 -100.75533585 150.01949629 -98.55859375 152.87109375 C-93.3719432 159.23707551 -87.85726573 162.59427969 -79.9765625 164.875 C-76.94154465 165.30062354 -76.94154465 165.30062354 -74.68359375 163.41015625 C-73.94238281 162.63542969 -73.20117188 161.86070312 -72.4375 161.0625 C-65.24980926 154.09228856 -56.98190394 149.38338426 -48 145 C-48.845625 144.030625 -49.69125 143.06125 -50.5625 142.0625 C-51.71026462 140.70996986 -52.85597505 139.35569477 -54 138 C-54.56460938 137.34773438 -55.12921875 136.69546875 -55.7109375 136.0234375 C-63.91072247 126.11690995 -70.30712832 113.52698556 -71.25 100.5625 C-71.02604712 98.26698293 -70.58519535 96.22279848 -70 94 C-68.58566794 93.7763663 -67.16832382 93.57173524 -65.75 93.375 C-64.96109375 93.25898438 -64.1721875 93.14296875 -63.359375 93.0234375 C-60.45551757 92.99459123 -59.2802263 93.16715987 -57 95 C-56.03272607 97.51313196 -55.29505651 99.84748528 -54.625 102.4375 C-51.58117879 113.05404422 -47.13742741 122.32711077 -39 130 C-38.32453125 130.71027344 -37.6490625 131.42054688 -36.953125 132.15234375 C-32.21936465 136.18222797 -28.4290088 137.24635343 -22.3046875 136.765625 C-18.12196577 136.28356285 -13.98770266 135.62057173 -9.83984375 134.90234375 C-1.95804132 133.55935507 5.68956197 133.8776127 13.625 134.5 C14.83414063 134.5928125 16.04328125 134.685625 17.2890625 134.78125 C18.63097656 134.88953125 18.63097656 134.88953125 20 135 C19.7834375 134.17435547 19.7834375 134.17435547 19.5625 133.33203125 C18.07058473 126.64949412 17.77859978 120.13056835 17.75 113.3125 C17.74097656 112.42216064 17.73195312 111.53182129 17.72265625 110.61450195 C17.74730995 105.08950613 18.23072738 100.25473969 20 95 C23.51824511 92.65450326 24.85775694 92.42008597 29 93 C31.6875 94.80078125 31.6875 94.80078125 34 98 C34.5516511 101.89177994 34.33111963 105.70872694 34.125 109.625 C33.6507853 119.86547411 33.73397811 130.94846223 41 139 C45.2368216 141.5278718 49.82257302 143.38031323 54.42529297 145.12817383 C66.48803885 149.7487523 77.63657815 156.11078799 88.93652344 162.31787109 C158.21299351 200.64362431 158.21299351 200.64362431 234.5625 206.4375 C252.53355436 201.09274083 265.32897635 190.30385262 274.6171875 174.1953125 C284.74290419 155.20329661 287.52225328 132.6367878 282.1796875 111.80078125 C277.01200222 94.84295686 266.25032041 81.07857472 251 72 C234.64791926 63.88621374 215.81869763 61.97647124 198.2265625 67.3984375 C191.2589077 69.93244702 184.48434936 72.9921045 177.67675781 75.92114258 C160.1669448 83.4154334 143.98826067 86.24154384 125 88 C133.43060684 95.05853701 142.27137211 98.49263289 153.06640625 100.26171875 C156.0873113 101.02197315 157.2042077 101.5102405 159 104 C160.11278259 107.65628566 160.31948363 109.31539221 158.6875 112.8125 C157 115 157 115 155 116 C145.50176726 116.20117286 137.56008498 113.94086931 129 110 C128.10925781 109.59007812 127.21851563 109.18015625 126.30078125 108.7578125 C112.71241035 101.89253692 100.87732211 91.51962243 90 81 C89.25105469 80.27941406 88.50210938 79.55882812 87.73046875 78.81640625 C82.41320693 73.60081291 77.59111711 68.00070951 72.7265625 62.3671875 C66.9626905 55.83964791 60.89442913 50.30633304 54 45 C53.07574219 44.26007813 52.15148437 43.52015625 51.19921875 42.7578125 C12.6510466 12.60782129 -38.09997217 6.35302636 -84 22 Z M-66 177 C-66.09522418 179.86091818 -66.12553326 182.69763621 -66.11352539 185.55883789 C-66.11367142 186.45631241 -66.11381744 187.35378693 -66.1139679 188.27845764 C-66.11326842 191.25988134 -66.10547441 194.2412434 -66.09765625 197.22265625 C-66.09579219 199.28388942 -66.09436823 201.34512304 -66.09336853 203.40635681 C-66.08954237 208.8430401 -66.07971126 214.27969686 -66.06866455 219.71636963 C-66.05845253 225.25947714 -66.05387136 230.80258892 -66.04882812 236.34570312 C-66.03808908 247.23048043 -66.02101149 258.11523802 -66 269 C-64.86195419 268.73150742 -63.72390839 268.46301483 -62.55137634 268.18638611 C-61.02766286 267.82728505 -59.50394541 267.46820087 -57.98022461 267.10913086 C-57.23378441 266.93297997 -56.48734421 266.75682907 -55.71828461 266.57534027 C27.53681727 246.96356113 117.87105017 239.57981672 206.15478516 272.171875 C209.47666073 273.54477101 209.47666073 273.54477101 213 274 C213 257.5 213 241 213 224 C206.73 223.01 200.46 222.02 194 221 C190.06216084 220.16723177 186.20082081 219.31641287 182.3125 218.3125 C181.31178467 218.0561377 180.31106934 217.79977539 179.2800293 217.53564453 C140.50335548 207.34672875 104.21204319 190.11476365 69.38476562 170.52929688 C26.66734229 146.57530024 -28.33664012 139.33664012 -66 177 Z M-33.0625 278 C-33.80000488 278.16140472 -34.53750977 278.32280945 -35.29736328 278.48910522 C-45.73240234 280.79350968 -55.83240599 283.70425766 -66 287 C-66 295.25 -66 303.5 -66 312 C-61.69665578 310.56555193 -57.76074128 309.0431186 -53.625 307.25 C-27.17755349 296.44620643 3.65352579 292.8772982 32 291 C33.25490234 290.91387451 34.50980469 290.82774902 35.80273438 290.73901367 C48.11806092 289.94446225 60.41179396 289.79903905 72.75 289.8125 C74.29469971 289.81340637 74.29469971 289.81340637 75.87060547 289.81433105 C122.42362314 289.88813901 169.66781961 293.82844048 213 312 C213 305.73 213 299.46 213 293 C205.63052578 289.11017548 198.28881957 286.1528319 190.375 283.5625 C189.19059326 283.17416992 188.00618652 282.78583984 186.78588867 282.38574219 C115.67781546 259.46633652 39.23628906 262.07511916 -33.0625 278 Z M-63.73046875 331.52734375 C-65.22629085 332.96988108 -65.22629085 332.96988108 -65.1875 335.3125 C-61.9886865 342.55192004 -53.14713787 345.69916264 -46.24609375 348.49609375 C9.36944222 368.89510157 78.05101801 368.49005834 136 361 C137.18062012 360.85014648 138.36124023 360.70029297 139.57763672 360.54589844 C179.54670273 356.02031512 179.54670273 356.02031512 213 336 C209.50058814 328.00624545 200.94288839 324.63119229 193.2734375 321.5078125 C155.76195678 307.73504768 113.76533203 305.7693895 74.1875 305.8125 C73.15675354 305.81310425 72.12600708 305.8137085 71.06402588 305.81433105 C-0.17134166 304.80992744 -0.17134166 304.80992744 -63.73046875 331.52734375 Z " fill="#221E1F" transform="translate(192,67)"/>
</svg>
